<svg width="84" height="42" viewBox="0 0 84 42" fill="none" xmlns="http://www.w3.org/2000/svg">
<path d="M33.0831 31.2715H29.4422L21.8268 23.4337L14.2391 31.2715H10.5982L20.0202 21.5438L10.5982 11.8161H14.2391L33.0831 31.2715ZM33.0831 11.8161L24.6061 20.5432L22.7995 18.681L29.4422 11.8161H33.0831ZM55.6885 31.2715H35.5661V11.8161H55.6885V14.5954H38.3454V28.4921H55.6885V31.2715ZM53.3261 22.9334H39.7351V20.1541H53.3261V22.9334ZM61.9047 31.2715H59.1254V11.8161H60.515C61.8677 11.8161 63.3314 12.0755 64.9064 12.5943C66.4999 13.1131 68.0934 13.845 69.6869 14.79C71.2804 15.7349 72.7812 16.8652 74.1894 18.1808C75.6162 19.4778 76.8391 20.9231 77.8582 22.5165V11.8161H80.6375V31.2715H77.8582C77.8582 29.5668 77.5061 27.9363 76.802 26.3798C76.1164 24.8049 75.1993 23.3596 74.0505 22.0441C72.9017 20.71 71.6232 19.5334 70.215 18.5143C68.8253 17.4767 67.4078 16.6336 65.9626 15.9851C64.5173 15.318 63.1647 14.8919 61.9047 14.7066V31.2715Z" fill="white"/>
<path fill-rule="evenodd" clip-rule="evenodd" d="M36.6713 7.58172C33.0195 3.56126 27.7499 1.0369 21.8906 1.0369C10.8659 1.0369 1.92854 9.97424 1.92854 20.999C1.92854 32.0238 10.8659 40.9611 21.8906 40.9611C27.751 40.9611 33.0215 38.4358 36.6734 34.414C32.8873 38.8379 27.2628 41.6417 20.9835 41.6417C9.58284 41.6417 0.34082 32.3997 0.34082 20.9991C0.34082 9.59847 9.58284 0.356445 20.9835 0.356445C27.2617 0.356445 32.8853 3.15919 36.6713 7.58172Z" fill="white"/>
</svg>
