<svg width="40" height="40" viewBox="0 0 40 40" fill="none" xmlns="http://www.w3.org/2000/svg">
<rect x="0.5" y="0.5" width="39" height="39" rx="9.5" fill="#010844"/>
<rect x="0.5" y="0.5" width="39" height="39" rx="9.5" stroke="#6C71FF"/>
<path d="M11.0391 26.7207C10.7217 26.7207 10.4559 26.6132 10.2415 26.3981C10.0272 26.183 9.9197 25.9172 9.91895 25.6006C9.9182 25.284 10.0257 25.0181 10.2415 24.8031C10.4574 24.588 10.7232 24.4805 11.0391 24.4805H28.9609C29.2783 24.4805 29.5445 24.588 29.7596 24.8031C29.9746 25.0181 30.0818 25.284 30.0811 25.6006C30.0803 25.9172 29.9728 26.1834 29.7585 26.3992C29.5442 26.615 29.2783 26.7222 28.9609 26.7207H11.0391ZM11.0391 21.1201C10.7217 21.1201 10.4559 21.0126 10.2415 20.7975C10.0272 20.5825 9.9197 20.3166 9.91895 20C9.9182 19.6834 10.0257 19.4175 10.2415 19.2025C10.4574 18.9874 10.7232 18.8799 11.0391 18.8799H28.9609C29.2783 18.8799 29.5445 18.9874 29.7596 19.2025C29.9746 19.4175 30.0818 19.6834 30.0811 20C30.0803 20.3166 29.9728 20.5828 29.7585 20.7986C29.5442 21.0145 29.2783 21.1216 28.9609 21.1201H11.0391ZM11.0391 15.5195C10.7217 15.5195 10.4559 15.412 10.2415 15.1969C10.0272 14.9819 9.9197 14.716 9.91895 14.3994C9.9182 14.0828 10.0257 13.817 10.2415 13.6019C10.4574 13.3868 10.7232 13.2793 11.0391 13.2793H28.9609C29.2783 13.2793 29.5445 13.3868 29.7596 13.6019C29.9746 13.817 30.0818 14.0828 30.0811 14.3994C30.0803 14.716 29.9728 14.9822 29.7585 15.1981C29.5442 15.4139 29.2783 15.521 28.9609 15.5195H11.0391Z" fill="white"/>
</svg>
